<svg id="Capa_1" data-name="Capa 1" width="90" height="90"
    xmlns="http://www.w3.org/2000/svg" viewBox="0 0 1200 1200">
    <defs>
        <style>.cls-1{fill:#70f8cb;}.cls-2{fill:#232931;}</style>
    </defs>
    <g id="_02.2" data-name="02.2">
        <rect class="cls-1" x="298.37" y="194.02" width="623.97" height="623.97" rx="48.96"/>
        <path class="cls-1" d="M367.06,877.16a5.23,5.23,0,0,1,1.09,3,5.15,5.15,0,0,1-.6,3,3.21,3.21,0,0,1-4.11,1.93,38.27,38.27,0,0,0-10.62-1,20.11,20.11,0,0,0-11.11,4.35,26.67,26.67,0,0,0-8.69,12,43.37,43.37,0,0,0-3.14,16.3,24.67,24.67,0,0,0,4,14.13,23.06,23.06,0,0,0,10.26,8.57,24.51,24.51,0,0,0,8.7,1.93,57.53,57.53,0,0,0,9.78-.36,68.74,68.74,0,0,0,9.78-1.93,95.65,95.65,0,0,0,9.17-3,3.38,3.38,0,0,1,2.78.24,3.83,3.83,0,0,1,1.81,1.93,6.19,6.19,0,0,1-1.21,6.28,26.26,26.26,0,0,1-7.72,5.55A51.75,51.75,0,0,1,366.58,954a52.72,52.72,0,0,1-11.83,1.57,39.76,39.76,0,0,1-11.35-1.33,37.62,37.62,0,0,1-12.68-5.67,35.18,35.18,0,0,1-8.57-8.7,37.59,37.59,0,0,1-5.07-10.62,46.86,46.86,0,0,1-1.93-11.71,50.94,50.94,0,0,1,5.67-26.08,39.1,39.1,0,0,1,17.27-17.15A29.78,29.78,0,0,1,354.63,871Q363,871.86,367.06,877.16Z"/>
        <path class="cls-1" d="M472.35,882.23q-4.35,2.41-9.06,5.07a90.15,90.15,0,0,0-9.42,6.16,60,60,0,0,0-8.93,8.21,53.45,53.45,0,0,0-7.61,11.23,64.12,64.12,0,0,0-6.52,18.71,152.48,152.48,0,0,0-2.17,18.72,21.13,21.13,0,0,1-2.05,8.81q-2.05,4.47-5.68,4.47-4.59,0-7.36-4.71a31.34,31.34,0,0,1-3.75-9.06q-4.11-17.13-6.76-33.92t-4.59-33.45q0-3.37,2.06-4.35a9,9,0,0,1,4.71-.72,16.51,16.51,0,0,1,5.55,1.45,5.11,5.11,0,0,1,3.14,3.86q1,8.94,2.41,18.72t2.9,16.78a42.55,42.55,0,0,1,5.31-15.94,62.23,62.23,0,0,1,10.75-14,63.11,63.11,0,0,1,14.49-10.63,53.84,53.84,0,0,1,16.54-5.79,18.93,18.93,0,0,1,6,0,5.6,5.6,0,0,1,3.38,1.69c.64.8.76,2.09.36,3.86A8.34,8.34,0,0,1,472.35,882.23Z"/>
        <path class="cls-1" d="M545.27,908.79A83.66,83.66,0,0,1,525,917.36a87,87,0,0,1-23.43,3q.49,8.46,4.83,13.41a17.41,17.41,0,0,0,10.87,5.91,25.63,25.63,0,0,0,7.85-.24,32.38,32.38,0,0,0,7.48-2.29,42.71,42.71,0,0,0,6.4-3.51,43.51,43.51,0,0,0,5.07-3.86,10.83,10.83,0,0,1,4.59-2.53,6.28,6.28,0,0,1,3.62-.13c2.26.81,3.06,3.23,2.42,7.25a37,37,0,0,1-11.11,13.16,36.2,36.2,0,0,1-16.18,6.88,35.71,35.71,0,0,1-15.93-.72,33.38,33.38,0,0,1-14.74-8.45,37.3,37.3,0,0,1-8.45-13,56.88,56.88,0,0,1-3.62-15.46A36.54,36.54,0,0,1,486,902.51a33.48,33.48,0,0,1,6.4-12A35,35,0,0,1,503.25,882a37.41,37.41,0,0,1,15.22-3.87A33.73,33.73,0,0,1,537.3,882a25.37,25.37,0,0,1,11.84,12.8q1.92,4.59,1.08,8T545.27,908.79ZM517.5,892.37a26.65,26.65,0,0,0-5.19,1.69,23,23,0,0,0-5.07,3,25,25,0,0,0-4.11,4.11,9.52,9.52,0,0,0-2.05,5.19,62,62,0,0,0,9.06-.73c3.29-.48,6.52-1.08,9.66-1.81a74.88,74.88,0,0,0,8.69-2.53,34.74,34.74,0,0,0,6.64-3.14,9.3,9.3,0,0,0-7.12-5.68A27.32,27.32,0,0,0,517.5,892.37Z"/>
        <path class="cls-1" d="M632,876.19q1,6.76,1.57,14.37t1,15.33q.36,7.74.36,15t-.24,13q7.73,5.31,9.3,9.41a10,10,0,0,1,.36,7.25q-1.46,4.35-5.19,4.47a17.13,17.13,0,0,1-8.58-2.54q-3.37,2.41-7.72,5.19T613.61,963a104.09,104.09,0,0,1-9.66,4.47,46.14,46.14,0,0,1-8.93,2.66,18.88,18.88,0,0,1-13.89-2.9q-6.15-4.11-8.33-12.31a30.23,30.23,0,0,1-.72-11.48,32.33,32.33,0,0,1,3.62-11.35,34.61,34.61,0,0,1,7.85-9.78,35.94,35.94,0,0,1,11.71-6.76,20.6,20.6,0,0,1,4.71-1.2,32.3,32.3,0,0,1,6.28-.37,22.64,22.64,0,0,1,6.64,1.33,17,17,0,0,1,6.27,4.11q0-4.11-.12-9.06t-.36-10q-.24-5.07-.6-9.54c-.24-3-.53-5.51-.85-7.6-.32-2.42-1.25-3.91-2.77-4.47a8.39,8.39,0,0,0-5.68.36Q603,881,595.26,886.58a172.84,172.84,0,0,0-14.73,11.83,6,6,0,0,1-4.95,1.93,7.32,7.32,0,0,1-4.71-2.17,7.08,7.08,0,0,1-2.17-4.47,7.86,7.86,0,0,1,1.93-5.43q4.1-4.35,9.17-8.94A95.64,95.64,0,0,1,590.43,871a65.2,65.2,0,0,1,11.35-6.16,33.76,33.76,0,0,1,11.59-2.65q8.45-.24,13,3.74A16.48,16.48,0,0,1,632,876.19Zm-28,51.92a20.78,20.78,0,0,0-6.64,3,29.51,29.51,0,0,0-6.28,5.55,21.6,21.6,0,0,0-4.1,7.25,12.41,12.41,0,0,0-.12,7.85,3.61,3.61,0,0,0,2.05,2.17,5.18,5.18,0,0,0,3.5.24,59.23,59.23,0,0,0,13.16-4.71,45.42,45.42,0,0,0,11.71-7.6,7.6,7.6,0,0,0-1.45-3.75,41.71,41.71,0,0,0-3.38-4.59,25.1,25.1,0,0,0-4.22-4A6,6,0,0,0,604,928.11Z"/>
        <path class="cls-1" d="M713.1,900.82a17.62,17.62,0,0,1,9.17,2.18,7.93,7.93,0,0,1,4.59,7.48,5.64,5.64,0,0,1-4.46,5.19,25.57,25.57,0,0,1-6.4,1.09q-4.85,0-10.39.24t-11.35.73q-.48,8-.84,15t-.61,12.43q-.24,5.45-.24,8.82c0,2.26.08,3.46.24,3.62a67.39,67.39,0,0,0,11.47-3.26q6.16-2.29,12.32-5.07t12.07-5.8q5.93-3,11.23-5.67a6.58,6.58,0,0,1,4.47-.73,3.14,3.14,0,0,1,2.54,2.18,14.05,14.05,0,0,1-.73,6.52,17.07,17.07,0,0,1-4.35,7,107.27,107.27,0,0,1-9.53,6.64q-5.92,3.75-12.68,7.13A135.25,135.25,0,0,1,706,972.42a48.58,48.58,0,0,1-12.19,3q-8,.72-12.07-4.35a21.9,21.9,0,0,1-4.59-12.8q-.5-7.71-.12-17.86t.84-21.5q-4.59.5-8.81.85t-8.09.85a19.27,19.27,0,0,1-6.88-1.45,5.47,5.47,0,0,1-3.75-5.56,9.3,9.3,0,0,1,1.21-3.86c.81-1.61,2.57-2.82,5.31-3.62q9.9-1.7,22-2.9.72-11.36,1.69-22T682.19,862a10.51,10.51,0,0,1,1.69-5.08c1-1.45,2-2.17,3.14-2.17a13.34,13.34,0,0,1,7.85,2c2.49,1.54,3.74,3.26,3.74,5.2q-1,8.2-1.81,18.59t-1.57,21.25c3.22-.32,6.31-.52,9.3-.6S710.36,901,713.1,900.82Z"/>
        <path class="cls-1" d="M812.34,881.26a31.07,31.07,0,0,1,12.2,8,38.29,38.29,0,0,1,7.6,12,42.38,42.38,0,0,1,3,13.64,36.29,36.29,0,0,1-1.57,13,79.15,79.15,0,0,1-6.76,13.28,60.55,60.55,0,0,1-9.42,11.59A44.36,44.36,0,0,1,805.34,961a35,35,0,0,1-15,3.14q-9.9,0-16.66-4.59a32.52,32.52,0,0,1-10.63-11.83,46.1,46.1,0,0,1-5-16.42,67.16,67.16,0,0,1,.36-18.35,66.48,66.48,0,0,1,3.26-13.16,44.33,44.33,0,0,1,5.92-11.35A32.89,32.89,0,0,1,776,880.3a19,19,0,0,1,10.75-3.14,34.39,34.39,0,0,1,8.45,1.33,40.17,40.17,0,0,1,9.42,3.74Q807.76,879.33,812.34,881.26Zm-9.17,17.63a69.51,69.51,0,0,1-6.16-4.47c-2.34-1.84-4.39-2.77-6.16-2.77a8.23,8.23,0,0,0-5.67,2.65,28,28,0,0,0-4.83,6.16,52.68,52.68,0,0,0-3.5,7.12,39.67,39.67,0,0,0-1.94,5.8,59.71,59.71,0,0,0-1,8.69,42,42,0,0,0,.72,10,23,23,0,0,0,3.75,8.94,15,15,0,0,0,8.33,5.67,15.61,15.61,0,0,0,8-.12,28.82,28.82,0,0,0,9.06-4,37.38,37.38,0,0,0,8.45-7.73,35.47,35.47,0,0,0,6.16-11.11,23.22,23.22,0,0,0,.12-14.61,17.15,17.15,0,0,0-9.3-11,5.79,5.79,0,0,1-3.38,1.2A5.89,5.89,0,0,1,803.17,898.89Z"/>
        <path class="cls-1" d="M926.56,882.23q-4.35,2.41-9,5.07a90.15,90.15,0,0,0-9.42,6.16,60.53,60.53,0,0,0-8.94,8.21,53.43,53.43,0,0,0-7.6,11.23A63.54,63.54,0,0,0,885,931.61a152.53,152.53,0,0,0-2.18,18.72,21,21,0,0,1-2.05,8.81q-2.06,4.47-5.67,4.47-4.59,0-7.37-4.71a31.29,31.29,0,0,1-3.74-9.06q-4.11-17.13-6.76-33.92t-4.59-33.45q0-3.37,2.05-4.35a9,9,0,0,1,4.71-.72,16.51,16.51,0,0,1,5.55,1.45,5.09,5.09,0,0,1,3.14,3.86q1,8.94,2.42,18.72t2.9,16.78a42.37,42.37,0,0,1,5.31-15.94,62.48,62.48,0,0,1,10.74-14A63.54,63.54,0,0,1,904,877.64a53.93,53.93,0,0,1,16.54-5.79,18.93,18.93,0,0,1,6,0,5.54,5.54,0,0,1,3.38,1.69c.64.8.76,2.09.36,3.86A8.34,8.34,0,0,1,926.56,882.23Z"/>
        <polygon class="cls-2" points="430.01 503.33 475.47 512.22 559.32 342 517.09 327.85 483.96 400.89 439.51 326.24 396.27 342.4 460.62 444.94 430.01 503.33"/>
        <path class="cls-2" d="M606.91,498a52.88,52.88,0,0,0,12.57,8.2q13.07,6,29.64,6h2.76q27-.84,44.44-16.05,17.14-14.93,17.15-43.61V351.89l-40.2,3.59v92.86a43.48,43.48,0,0,1-3.41,17.51q-3.32,7.45-16.41,8.75a22.85,22.85,0,0,1-3.23.18q-20.75,0-20.74-24.59V351.52l-39.83,3.59V456.9q0,17.06,7.92,29.87A50,50,0,0,0,606.91,498Z"/>
        <path class="cls-2" d="M468.38,553.71a71,71,0,0,0-39.82,11.73,81.74,81.74,0,0,0-15.78,13.22,86.25,86.25,0,0,0-22.5,58.25v1a82.2,82.2,0,0,0,11.45,40.79,86.37,86.37,0,0,0,13,16.68A79.78,79.78,0,0,0,431.34,708a73,73,0,0,0,37.56,9.92H471c10.59-.25,19.4-2.24,26.18-5.91,9.25-5.13,13.17-8.25,14.82-10l7.13-7.36v21l40.48-4V498.28l-42,5.13v72.77l-7.08-7.08C500.21,558.89,486.07,553.71,468.38,553.71ZM516.08,617a46,46,0,0,1,4.31,19.39,26.56,26.56,0,0,1-.3,4.36,40.83,40.83,0,0,1-15.93,29.11c-8.74,6.84-18.45,10.31-28.85,10.31a27.4,27.4,0,0,1-4.32-.29c-10.92-.92-20.49-6.08-28.46-15.35-7.29-7.9-11-17.63-11-28.92a33.94,33.94,0,0,1,.29-5.08c.9-10.74,5.85-20.19,14.7-28.09a45.06,45.06,0,0,1,30.09-11.38h.66a41.46,41.46,0,0,1,22.91,7.42A49.7,49.7,0,0,1,516,616.86Z"/>
        <path class="cls-2" d="M688.9,557.6a85.69,85.69,0,0,0-29.1-4.91h-3.1a168.06,168.06,0,0,0-19.09,1.94c-4.46.7-11.22,1.94-20.11,3.68-4.46,1-6.84,1.55-8.1,1.9l-7.57,36.58c2.69-1.14,6.37-2.6,11.42-4.51,10.57-4.1,20.15-6.19,28.42-6.19h1.59c10.28,0,17.8,1.46,23,4.47l.18.1c5.32,3.48,9,8.76,11,15.68,1.17,4.09,1.73,9.53,1.73,16.64v6.83L673.52,626c-.34-.22-.78-.54-1.33-1-.16-.13-.83-.63-3.59-2.47l-.25-.18A39.48,39.48,0,0,0,657,616.52a51.33,51.33,0,0,0-16.44-3.1H637.3a63.21,63.21,0,0,0-27.14,6.13,51.72,51.72,0,0,0-21.48,19c-5.17,7.81-7.77,17-7.77,27.29,0,11.27,2.58,20.77,7.69,28.22l.07.1a54.7,54.7,0,0,0,5.77,7.57,47,47,0,0,0,6.87,6.2,52.85,52.85,0,0,0,8.36,5,59.55,59.55,0,0,0,27.63,6.38h1.06c7.41-.24,13.65-1.39,18.42-3.41,5.71-2.27,10-4.58,12.88-6.89l.27-.19a20,20,0,0,0,3.92-3,2.41,2.41,0,0,0-.4,1.44h7.35V717l39.36-4.57V603c0-11.88-2.85-21.51-8.47-28.62A55.64,55.64,0,0,0,688.9,557.6ZM670.53,683.43a31.81,31.81,0,0,1-19.34,5.94c-8.79,0-16-2.43-21.43-7.23-5.16-4.24-7.78-10-7.78-17.09v-1.22a23,23,0,0,1,8.57-17.06l.2-.16A33.28,33.28,0,0,1,649.31,640h1.35c7.64,0,14.17,2.2,19.41,6.54a23.73,23.73,0,0,1,8.61,18.84C678.68,673.09,675.94,679.18,670.53,683.43Z"/>
        <polygon class="cls-2" points="778.02 321.27 748.11 352.32 782.19 378.51 814.25 347.08 778.02 321.27"/>
        <polygon class="cls-2" points="805.87 405.86 755.66 411.96 755.66 714.34 805.87 710.7 805.87 405.86"/>
    </g>
</svg>